<svg height="309.838668" viewBox="0 0 400 384" width="322.748612" xmlns="http://www.w3.org/2000/svg" xmlns:xlink="http://www.w3.org/1999/xlink"><clipPath id="a"><path d="m0 288h300v-288h-300z"/></clipPath><g clip-path="url(#a)" fill="#a03033" transform="matrix(1.3333333 0 0 -1.3333333 0 384)"><path d="m0 0-4.293-1.864c-.727-.313-1.139-.544-1.275-.695-.157-.15-.237-.379-.285-.657-.016-.3.025-.63.206-1.015l.2-.472-.381-.169-3.131 7.28.363.163.232-.464c.153-.403.369-.704.622-.885.161-.139.398-.194.656-.194.193 0 .65.146 1.353.447l9.124 3.951c.715.288 1.155.534 1.306.68.121.154.235.373.253.655.029.288-.018.639-.193 1.013l-.204.462.379.165 3.137-7.262-.373-.158-.2.447c-.187.407-.383.714-.636.89-.177.138-.394.205-.672.205-.195 0-.642-.152-1.347-.434l-3.914-1.722 2.118-4.899 3.916 1.708c.715.3 1.149.541 1.293.682.128.148.241.366.264.667.025.288-.023.62-.216 1.016l-.179.459.372.146 3.138-7.243-.385-.171-.175.46c-.194.414-.402.69-.633.873-.193.142-.41.208-.69.208-.194 0-.628-.138-1.327-.449l-9.158-3.941c-.711-.313-1.129-.544-1.288-.69-.144-.146-.231-.373-.253-.655-.025-.303.022-.639.193-1.026l.194-.449-.365-.165-3.139 7.249.373.182.206-.458c.171-.426.371-.704.63-.885.179-.143.398-.213.661-.213.2 0 .645.153 1.346.454l4.313 1.854z" transform="translate(51.1092 104.2465)"/><path d="m0 0 4.353-6.479-.348-.241-.194.326c-.348.494-.62.795-.836.908-.227.105-.458.153-.674.093-.243-.033-.719-.289-1.44-.773l-6.159-4.124c-1.131-.758-1.811-1.337-2.052-1.751-.247-.412-.379-.898-.361-1.45.023-.556.221-1.121.618-1.718.47-.678.993-1.15 1.642-1.438.618-.253 1.279-.338 1.982-.218.688.121 1.706.632 3.049 1.528l5.127 3.432c.579.373.927.707 1.086.979.162.276.235.546.187.787-.025.368-.222.807-.554 1.314l.342.241 2.927-4.355-.354-.229-.171.26c-.247.348-.513.601-.808.739-.313.141-.626.163-.992.081-.252-.046-.625-.254-1.131-.598l-4.78-3.201c-1.473-.991-2.614-1.605-3.409-1.833-.772-.254-1.704-.196-2.756.193-1.055.386-2.023 1.247-2.878 2.536-.748 1.1-1.152 2.029-1.279 2.822-.143 1.072-.023 1.982.377 2.74.395.74 1.122 1.453 2.152 2.174l6.16 4.124c.721.469 1.149.813 1.275 1.024.117.197.171.426.14.692-.023.265-.216.667-.577 1.197z" transform="translate(63.6156 95.6748)"/><path d="m0 0-1.607-11.905 4.709 4.505c.643.639.991 1.164 1.057 1.56.058.56-.196 1.137-.793 1.728l.297.301 3.444-3.624-.295-.288c-.496.42-.852.637-1.11.721-.27.066-.517.029-.818-.084-.284-.116-.706-.404-1.221-.89l-9.091-8.731-.254.266 2.005 16.105-6.955-6.66c-.632-.608-.902-1.151-.855-1.646.06-.509.254-.931.627-1.304l.247-.272-.307-.276-3.716 3.881.307.278c.572-.591 1.089-.892 1.563-.892.466-.01.997.254 1.58.82l7.707 7.4.057.517c.058.494.058.886-.01 1.152-.078.263-.264.576-.585.908l.321.288z" transform="translate(76.9536 77.7001)"/><path d="m0 0 1.263 5.539-4.948-2.842zm-.175-.886-4.318 3.144-1.388-.808c-.447-.276-.779-.529-.96-.795-.248-.342-.289-.702-.155-1.057.113-.212.443-.591 1.04-1.098l-.243-.336-4.048 2.985.237.326c.491-.253.985-.336 1.486-.241.496.068 1.287.447 2.377 1.073l11.515 6.543.184-.126-2.94-13.244c-.276-1.254-.356-2.103-.276-2.542.06-.348.276-.673.62-.968l-.241-.334-5.912 4.341.247.338.247-.186c.468-.36.865-.529 1.148-.529.206 0 .362.082.506.263.089.114.136.219.176.367.018.06.1.361.218.88z" transform="translate(86.4972 55.9027)"/><path d="m0 0 2.523-11.705 2.891 5.817c.414.831.558 1.428.473 1.836-.129.548-.572.995-1.341 1.343l.192.379 4.472-2.202-.191-.375c-.596.204-1.018.301-1.277.288-.258-.035-.515-.131-.74-.36-.247-.206-.536-.62-.836-1.269l-5.571-11.291-.354.165-3.586 15.827-4.259-8.629c-.414-.777-.471-1.403-.253-1.84.216-.447.571-.785 1.009-1.014l.328-.16-.175-.386-4.821 2.39.19.367c.748-.361 1.343-.46 1.782-.313.453.166.842.614 1.18 1.316l4.755 9.587-.113.507c-.108.495-.254.861-.421 1.09-.156.214-.447.432-.861.649l.198.379z" transform="translate(104.16 56.6521)"/><path d="m0 0 7.663-1.644-.076-.41-.393.097c-.579.115-.981.146-1.222.068-.233-.068-.445-.206-.567-.394-.131-.185-.294-.727-.473-1.563l-1.568-7.251c-.293-1.313-.354-2.211-.262-2.685.124-.469.367-.908.756-1.289.412-.379.952-.655 1.657-.787.799-.181 1.528-.146 2.161.095.638.241 1.174.645 1.58 1.221.401.579.791 1.646 1.124 3.228l1.294 6.016c.161.679.181 1.161.113 1.475-.088.294-.22.548-.401.704-.301.229-.736.41-1.339.542l.097.41 5.112-1.108-.096-.398-.289.056c-.416.088-.776.078-1.102-.025-.307-.115-.566-.321-.774-.622-.122-.221-.256-.608-.388-1.222l-1.209-5.622c-.373-1.74-.748-2.974-1.168-3.687-.379-.727-1.079-1.323-2.12-1.776-1.017-.461-2.311-.523-3.827-.195-1.298.276-2.242.661-2.886 1.147-.843.676-1.397 1.428-1.615 2.229-.254.807-.229 1.835.037 3.065l1.555 7.253c.183.849.243 1.391.196 1.609-.048.229-.19.427-.39.602-.212.169-.626.332-1.262.459z" transform="translate(121.804 49.172)"/><path d="m0 0 7.154-9.645.233 6.514c.035.896-.101 1.522-.35 1.85-.317.438-.915.667-1.77.679l.019.421 4.991-.186-.006-.406c-.649-.07-1.085-.148-1.3-.276-.222-.125-.403-.319-.535-.607-.14-.301-.2-.8-.229-1.512l-.447-12.583h-.373l-9.808 12.949-.327-9.608c-.023-.873.159-1.475.55-1.781.369-.326.818-.511 1.337-.511l.379-.023-.031-.4-5.375.169.035.427c.822-.023 1.393.127 1.754.447.329.325.494.892.535 1.683l.373 10.683-.288.402c-.332.428-.598.7-.826.842-.241.136-.602.219-1.061.243l.02.41z" transform="translate(143.8907 45.532)"/><path d="m0 0 .047-.414-7.881-.832-.035.426.506.047c.421.046.783.159 1.028.347.159.113.314.306.375.572.072.19.072.674-.018 1.411l-1.03 9.905c-.066.772-.175 1.254-.26 1.434-.119.181-.288.331-.554.459-.288.101-.608.161-1.04.101l-.501-.047-.035.42 7.894.814.017-.427-.495-.047c-.449-.039-.78-.159-1.028-.328-.181-.132-.325-.325-.412-.591-.041-.173-.041-.655.023-1.405l1.057-9.923c.066-.76.154-1.23.265-1.415.095-.171.283-.338.561-.447.253-.132.608-.167 1.022-.107z" transform="translate(165.541 31.6811)"/><path d="m0 0 .101-.389c-.497-.231-.921-.627-1.222-1.22-.226-.433-.473-1.388-.721-2.876l-2.295-12.463-.37-.097-7.888 10.445c-.979 1.254-1.58 1.981-1.846 2.187-.264.182-.678.254-1.292.173l-.08.404 7.052 1.741.078-.406-.235-.06c-.626-.16-1.059-.354-1.234-.558-.152-.156-.187-.325-.132-.544.037-.129.091-.268.198-.449.097-.152.4-.579.948-1.269l4.909-6.553 1.308 7.231c.144.88.23 1.452.243 1.741.035.3 0 .531-.046.715-.053.205-.138.393-.3.531-.173.134-.367.216-.608.253-.338.035-.775 0-1.294-.119l-.084.395z" transform="translate(181.3331 50.163)"/><path d="m0 0 2.462-5.647.276.126c.898.383 1.392.927 1.561 1.65.144.727.054 1.661-.307 2.775l.386.175 3.166-7.261-.394-.169c-.424.758-.871 1.337-1.37 1.703-.465.4-.947.614-1.361.627-.402.026-.944-.108-1.601-.398l1.695-3.893c.32-.785.544-1.23.701-1.368.132-.153.325-.235.554-.266.22-.035.54.041.921.218l.838.367c1.275.554 2.196 1.314 2.709 2.245.523.946.703 2.102.495 3.482l.383.161 1.306-4.679-12.012-5.226-.161.363.449.21c.406.162.707.393.892.636.128.171.206.4.206.678 0 .194-.15.643-.451 1.322l-3.986 9.137c-.266.624-.459 1.003-.554 1.143-.169.208-.367.332-.62.379-.361.082-.748.01-1.191-.171l-.453-.208-.179.379 11.628 5.074 1.774-4.118-.381-.161c-.645.909-1.234 1.51-1.788 1.788-.536.282-1.18.377-1.916.307-.445-.043-1.195-.307-2.237-.748z" transform="translate(188.3822 52.2276)"/><path d="m0 0 3.626-5.527.546.342c.867.579 1.462 1.086 1.783 1.508.314.451.474.956.439 1.535-.029.572-.247 1.186-.692 1.854-.616.953-1.337 1.53-2.083 1.691-.735.165-1.625-.089-2.618-.748zm4.071-6.201 2.323-3.545c.447-.686.783-1.086.993-1.211.181-.116.435-.175.723-.116.266.025.709.229 1.269.614l.237-.348-6.472-4.268-.241.35c.601.389.949.702 1.095.943.155.254.192.485.161.705-.041.229-.264.698-.744 1.384l-5.372 8.214c-.461.675-.787 1.083-.981 1.196-.187.141-.451.176-.721.141-.284-.035-.712-.241-1.279-.627l-.235.348 5.88 3.871c1.534.991 2.708 1.621 3.563 1.887.862.254 1.685.241 2.509-.029.814-.278 1.475-.797 1.982-1.555.608-.933.777-1.938.505-2.987-.15-.655-.583-1.343-1.215-2.052l5.846-2.278c.762-.289 1.269-.455 1.528-.474.392-.023.748.056 1.109.272l.22-.352-3.994-2.612-7.853 3.071z" transform="translate(202.576 59.626)"/><path d="m0 0 3.498-3.642-.354-.322c-1.014.796-2.071 1.199-3.233 1.199-1.133 0-2.078-.331-2.795-.992-.573-.52-.886-1.068-.927-1.669-.041-.589.101-1.106.445-1.487.241-.244.511-.414.795-.487.371-.121.855-.134 1.469-.08.422.058 1.296.278 2.672.672 1.874.541 3.314.749 4.305.572.968-.158 1.776-.597 2.456-1.333.861-.933 1.219-2.076 1.108-3.409-.13-1.341-.744-2.513-1.871-3.551-.325-.313-.7-.577-1.079-.796-.396-.22-.902-.438-1.557-.667-.355-.138-.633-.266-.795-.426-.151-.14-.242-.336-.314-.579-.059-.264-.037-.554.072-.861l-.306-.276-3.842 4.219.313.271c1.302-.968 2.602-1.439 3.858-1.439 1.255.012 2.301.381 3.09 1.095.62.567.975 1.175 1.016 1.854.064.66-.107 1.23-.521 1.675-.235.254-.548.447-.927.573-.34.115-.783.152-1.249.115-.494-.02-1.269-.206-2.33-.506-1.456-.423-2.608-.668-3.351-.711-.767-.05-1.475.022-2.089.241-.635.204-1.207.571-1.694 1.114-.795.89-1.155 1.933-1.083 3.154.095 1.234.62 2.295 1.631 3.193.351.348.752.624 1.181.83.313.186.739.338 1.269.499.525.156.873.313 1.024.447.15.13.228.276.228.437 0 .165-.125.453-.366.844z" transform="translate(219.1697 74.196)"/><path d="m0 0 .319-.278-5.185-5.982-.307.265.32.383c.3.332.469.658.512.958.054.204.011.447-.109.69-.068.172-.403.507-.978 1.002l-7.527 6.526c-.596.5-.989.789-1.183.849-.198.059-.439.047-.704-.048-.276-.078-.542-.288-.82-.62l-.342-.383-.313.276 5.185 5.995.3-.276-.335-.373c-.26-.342-.46-.655-.501-.969-.043-.206-.018-.434.113-.675.074-.194.388-.532.977-1.028l7.523-6.506c.587-.521.991-.799 1.178-.855.215-.066.443-.047.734.046.276.095.529.288.817.624z" transform="translate(238.1477 72.8278)"/><path d="m0 0 3.409-2.247-.212-.33c-.921.307-1.644.447-2.13.447-.531-.025-1.014-.177-1.5-.447-.261-.179-.593-.542-.964-1.145l-.645-.932 9.784-6.419c.64-.426 1.073-.655 1.266-.692.209-.035.449.013.691.138.284.128.525.385.747.736l.272.408.361-.204-4.353-6.634-.338.215.266.434c.245.355.379.715.395 1.016 0 .231-.059.437-.206.665-.094.173-.484.462-1.096.874l-9.776 6.429-.596-.917c-.56-.859-.783-1.594-.68-2.214.151-.874.645-1.681 1.488-2.456l-.241-.346-3.432 2.248z" transform="translate(236.0706 95.5922)"/><path d="m0 0 .385-.181c-.132-.486-.179-.892-.066-1.234.116-.462.674-1.341 1.638-2.631l3.677-5.216 3.337-1.462c.74-.324 1.205-.474 1.409-.474.211-.011.452.066.645.232.216.159.427.425.589.802l.332.76.408-.159-3.432-7.776-.379.173.332.725c.168.402.241.75.203 1.051-.01.23-.123.447-.317.655-.117.134-.544.364-1.221.665l-2.783 1.222-7.388-.643c-1.462-.153-2.336-.291-2.655-.472-.336-.173-.589-.474-.795-.908l-.392.146 2.928 6.65.377-.173-.13-.289c-.171-.406-.235-.713-.194-.914.048-.219.155-.353.254-.4.253-.113.991-.113 2.222.012l5.694.482-3.09 4.318c-.745 1.086-1.3 1.687-1.635 1.823-.171.085-.369.072-.567-.059-.266-.145-.56-.53-.886-1.138l-.36.161z" transform="translate(243.498 111.8741)"/><path d="m0 0c-.181-.107-.181-.402.06-.507.228 0 .529.105.719-.113.214.241.418 0 .661-.048.422 0 .908-.115 1.337-.092.42-.149.993-.072.993.531-.013 2.283-1.694 4.021-3.181 5.69-.956 1.016-2.13 1.753-3.251 2.48-.1.066-.016.264 0 .295-.016.266-.306-.066-.414.095-.97 1.013-2.016 1.856-2.919 2.948-1.162 1.174-2.566 1.959-3.355 3.458.024.081.098.147.152.116.313-.241.569-.495.762-.705 1.008-1.252 2-2.709 3.735-2.81.602-.025 1.191.355 1.716.818.095.126-.084.527-.379.573-.2-.099-.482 0-.56-.046-.67.118-1.44-.136-1.815.384-.396.541-.697 1.209-1.016 1.889 0 .082-.041.348 0 .564-.066.218-.402.392-.482.544-.191.389-.486.667-1.024.789-.216.047-.368.119-.494.245-.2.115-.2-.198-.354-.126-.143.276-.435-.037-.69.083-.472.123-.913-.155-1.473-.324-.408-.084-.835-.473-1.269-.667-.373-.107-.627-.484-.68-.915.968.07 2.012.589 2.981.217.022-.062 0-.147-.079-.169-.041-.114-.101-.079-.175 0-.107-.159-.344-.313-.397-.519.031-.462-.464-.934-.289-1.3.2-.542.962-.866 1.234-1.444.643-1.09 1.317-2.384 1.584-3.698-.941.235-1.361 1.697-2.476 1.267-.342-.159-.56-.532-.649-.931-.193-.884.301-1.764.307-2.732.2-.772.468-1.535.789-2.235.151-.33.204-.968.151-1.37 0-.181-.12-.447.053-.678.429-.408.884-.671 1.432-.696.671-.018 1.104.288 1.032.783.072.21-.152.463-.266.752-.053.175-.416.313-.272.7-.414.179-.414.649-.776.89-.138.091-.072.245-.072.245-.46.954-.995 1.741-1.523 2.577-.08.229 0 .532 0 .736 1.677-.668 2.485-2.6 3.311-4.269.284-.397.7-.591 1.186-.727.307 0 .596.161.868.161.228-.072.263.264.566.264.223.059.391.399.348.506-.125.451-.554.752-.651 1.222-.142.183-.36.243-.504.29-.031.134-.031.229 0 .32-.104.15-.351.276-.231.564 0 0-.167.12-.227.146-.103.085 0 .192.06.326 0 .13-.354.13-.354.228-.241 1.56-1.284 2.623-1.824 4.05 2.545-2.076 4.798-4.278 7.068-6.719.855-.849 1.605-1.671 2.213-2.709.272-.554-.418-1.115-1.197-1.197m-25.509 10.879c-.422.76-1.296 1.277-2.229 1.609-.408.167-.927.519-1.384.385-.258.01-.392.023-.633-.037-.018.047-.194.171-.266.171-.714-.134-1.433-.206-2.088-.495-.048-.084-.149-.23-.2-.313 1.302-.813 2.653-1.32 4.163-1.874.956-.361 1.776-.822 2.418-1.428.664-.692.857-1.522 1.5-2.202 0 .342 0 .645.085.933 0 .495-.272.874-.326 1.403-.226.639-.655 1.259-1.04 1.848m25.985 4.318c-.074-.048-.097-.114-.188-.079-1.959 1.475-3.967 2.775-5.875 4.298-2.136 1.773-3.611 4.033-5.304 6.198-.464.542-.909.991-1.523 1.232-1.019.243-1.975-.711-2.064-1.638-.253-1.728-.253-3.281-.152-5.117.059-.735.193-1.596.342-2.371.006-.7-.258-1.403-.035-2.109 1.782 2.029 1.883 4.931 1.45 7.502 2.095-1.644 3.836-3.77 5.89-5.418 3.226-2.577 6.705-4.628 9.721-7.405.158-.103-.136-.326-.268-.579-.608-.462-1.273-.781-1.916-1.069-.661-.311-1.409-.383-1.957-.82.062-.06.097-.134.223-.194 0 0 .053.06.084.194.188.035.241-.194.441-.194 0 0 .023.06.066.126.311.008.507-.126.57-.066.798.319 1.488.435 2.289.676.68.313 1.446.461 2.136.426 1.102-.148 2.095.288 2.808.993.229.194-.146.404-.09.601-.128.328-.441.46-.759.676-.484.253-1.098.507-1.578.795-.068.066-.004.151.025.21-1.44 1.061-2.871 2.083-4.336 3.132m-19.531 1.534c-.56.517-1.168.909-1.764 1.265 1.028.103 2.365-.043 2.932-1.143.282-.435-.134-1.174.095-1.656-.536.408-.872 1.061-1.263 1.534m4.159 1.084c.128.921-.915 1.693-1.782 2-.241.048-.482-.331-.696-.181-.231-.218-.513-.313-.694-.404-1.319-.288-2.596-.494-3.962-.494-.441 0-.77.206-1.143.366-.614.194-.939-.088-1.121-.545-.156-.316.134-.604.241-.742 1.807-2.305 3.488-4.528 5.725-6.394.062-2.223-.336-4.3.128-6.526 0-.423-.089-.965.132-1.344.133-.442.372-.939.867-1.003.523-.165 1.137-.152 1.535-.614 1.495-1.827 3.011-3.675 3.92-5.793-2.143 1.103-4.359 1.704-6.52 2.697 1.961-3.238 5.193-5.327 8.162-7.55.778-.513 1.219-1.287 1.957-1.806l.193-.153c.797-.449 1.518-.183 2.272.153.095.024.174.047.503.138.284-.013.311.504.175.735-.678.807-1.108 1.594-1.751 2.396-.482.601-.595 1.456-1.12 2.157-.167.232-.487.498-.703.607-.177.373-.459.693-.725 1.016-.577.667-.915 1.547-1.677 2.006-.2.114.142.206 0 .324-.2.113-.418.218-.548.379 0 .358-.393.579-.494.867-.085.241-.418.295-.519.676.066.16-.474.366-.573.632-.107.439-.464.589-.548.82-.626.822-1.456 1.463-2.196 2.165.235.855.896 1.535 1.042 2.408.085.278.186.554.27.82-.109 1.222-.373 2.384-.572 3.685 0 .126-.252.174-.221.38.113.119.19.162.19.162s-.124.066-.221.079c0 .131.031.222.097.288-.247.119-.171.373-.117.433.051.241-.233.471.051.723.066.103-.181.197-.051.296.117.229.02.554.051.818.264 1.113.33 2.215.443 3.323m46.608 49.589c6.31 2.466 12.867 4.497 19.481 5.947l.973.194-2.26 10.411-.968-.284-.962-.188c-2.376-.548-4.848-1.137-7.208-1.792l-.927-.326 1.712-6.033 4.247 1.102 1.181.325-.468 1.982-1.182-.291s-1.438-.409-2.427-.675c-.241.766-.414 1.427-.624 2.223 2.023.535 4.105 1.021 6.081 1.54.329-1.359 1.125-5.117 1.39-6.447-6.056-1.366-12.036-3.216-17.866-5.4-.455 1.216-1.836 4.856-2.365 6.141 1.829.696 3.704 1.341 5.539 1.966 0 0 .266.111.46.183.253-.808.504-1.453.661-2.202-1.121-.394-3.463-1.208-3.463-1.208l.641-1.895 5.411 1.848-1.907 5.999-2.458-.814c-2.194-.704-4.414-1.487-6.594-2.389l-.886-.38 3.836-9.838zm23.54 6.761.991.175c6.608 1.174 13.371 1.854 20.287 1.973h.99l-.253 10.628h-.968c-2.666 0-5.373-.241-8.016-.387l-1.368-.13.47-6.277 5.698.377-.152 2.004s-2.476-.181-3.698-.253c-.089.832-.132 1.5-.167 2.317 2.06.126 4.137.219 6.267.313.006-1.421.127-5.279.127-6.622-6.268-.18-12.529-.796-18.634-1.813-.206 1.329-.89 5.117-1.121 6.491.768.146 1.687.294 1.687.294 1.494.229 3.08.46 4.619.627.107-.8.179-1.428.307-2.275-1.21-.092-2.411-.288-3.717-.529l.285-1.947c1.586.241 3.125.46 4.647.614l.993.101-.74 6.211-.935-.06c-1.986-.158-3.895-.447-5.791-.785l-3.685-.57.175-1.001zm-13.84-32.569c.141.033.141-.06.151-.107-.01-.182-.01-.182-.122-.276-.094-.025-.185-.037-.185.07-.043.07-.109.07-.087.146.087.107.178.167.243.167m-9.469 6.141c-.513-.449-.948-.878-1.521-1.329-.029-.047.2-.216.299-.313.828 0 1.883 0 2.61.614.103.15.375.325.614.379.099.105.134-.029.134-.114 1.079.763 2.229 1.648 3.168 2.722.101.01.289.047.289 0 0-.231 0-.495-.054-.74-.266-.7-.76-1.219-1.18-1.763-.353-.688-.748-1.314-1.267-1.922-.449-.639-.649-1.098-.927-1.766-.258-.714-.468-1.425-.577-2.152-.097-.773-.048-1.508-.332-2.223-.535-1.374-.595-2.746 0-3.976.132-.461.655-.667.993-1.063.041.035.369.035.412.142.111 1.574-.591 2.963-.591 4.499-.099.511-.068 1.016-.023 1.619.089.608.414 1.185.931 1.426.404.326.833.657 1.053 1.014.087.024.175.037.175.037.031.123.031.173.128.23.156.07.286.171.397.124.443-.266.808-.231 1.144-.494.22-.054.461.047.661.103-.054.059-.082.16 0 .21.29.057.29.381.414.311.437-.083.247-.878.62-1.185.241-.047.575.097.575-.231-.091-.72-.21-1.456-.35-2.148 0-.101-.225-.365-.266-.494 0-.277-.142-.563 0-.944.068.072.2.095.212-.025.083-.354.194-.795.511-.795.727.081.82 1.014 1.512 1.339.076.047.319-.084.27-.325-.082-.748.496-1.44.927-1.947.113-.173.465-.548.507-.173.177 1.601-.837 2.94-.464 4.575.041.081.282.2.282.2-.101.501.087 1.042-.241 1.529-.292.263-.414.723-.834.877-.093-.06-.295 0-.4-.06-.191.06-.407.367-.607.219-.132.228-.507.148-.507.439.573 1.108 1.219 2.088 1.514 3.331.076.377-.128.69-.525.679-.837.011-2.157-.084-2.246-1.314-.053-.98-.904-1.986-1.959-2.293-.113-.033-.208.025-.177.151.655 1.061 1.15 1.944 1.893 2.972.05.118 0 .348.05.46.282.107.282.385.494.566.175.035.175.324.254.573 1.318 1.351 2.713 2.412 4.027 3.733.154.131.414.407.614.395.144-.107.265.047.331-.107.26-.482.742-.861.608-1.331 0-.313.169-.531.134-.748.089-1.487.733-2.921 1.154-4.303.482-1.84 1.071-3.698 1.555-5.527.241-.915.577-1.753.455-2.709-.126-1.421-1.901-1.12-2.95-.867.495-1.014 1.815-1.127 2.824-1.44.501-.134 1.127-.144 1.523.313.507.657.218 1.463.105 2.072-.056.614 0 1.197-.212 1.836-1.09 2.589-2.095 5.261-2.95 7.945 0 .072.06.105.156.165-.049.148-.302 0-.243.217.299.657-.478 1.163-.263 2.008.175.317-.215.665-.246 1.127-.047.105 0 .206.198.301-.06.459-.245.772-.198 1.254 0 .499-.175 1.199-.506 1.601-.161.107-.313.323-.614.348-.336-.107-.861-.082-1.181-.241-1.271-1.005-2.552-2.077-3.821-3.263 0 0-.064-.089-.117-.208-.567-.346-1.131-1.049-1.611-1.556-.118-.037-.285-.078-.313 0 .028.211.082.637.372.723-.049.025-.049.025-.059.167-.052.064.066.064.183.124.08.13.117.348.247.577.19.265.598.426.738.727.317.424.607.896.914 1.403.196.177.421.519.62.76.678.787 1.362 1.428 1.716 2.33.176.552-.224 1.118-.708 1.141-.525.033-.867.377-1.432.194.307-.517.575-1.244.181-1.729-.247-.148-.263-.354-.401-.508-.266-.11-.283-.287-.447-.423-.217-.049-.462-.243-.554-.097-.029.52-.12 1.098-.254 1.729-.107.952-.307 1.872-.737 2.643-.118.344-.538 1.199-.958 1.046-.336-.197-.282-1.046-.394-1.623 0-.194-.076-.447-.076-.614-.36-1.345-.319-2.614-.231-3.811 0-.618.419-1.392.099-1.852-1.537-2.159-3.366-3.864-5.273-5.473m-23.814 7.686.826.56c5.786 3.599 11.81 6.79 18.004 9.521l.888.4-4.198 9.723-.884-.402c-2.529-1.013-4.849-2.212-7.659-3.574l-.861-.473 2.795-5.61 5.087 2.515-.861 1.787s-2.211-1.076-3.311-1.642c-.323.752-.636 1.306-.989 2.088 2.036 1.018 3.84 1.879 5.632 2.674.522-1.269 2.083-4.847 2.643-6.046-5.667-2.525-11.212-5.465-16.463-8.771-.762 1.18-2.858 4.412-3.574 5.593.304.134.57.327.57.327 1.669.981 3.251 1.984 4.926 2.886.42-.708.708-1.279 1.151-1.996-1.019-.554-1.981-1.083-2.896-1.638l-.367-.218 1.038-1.763.326.241c1.234.747 2.422 1.475 3.698 2.113l.908.495-3.038 5.514-.903-.447c-2.029-1.063-4.035-2.301-5.92-3.479l-2.274-1.407.527-.894zm154.423-231.684c-12.579-8.778-26.395-15.413-40.978-19.815-.163.531-.35 1.044-.523 1.551 2.111.624 4.268 1.178 6.382 1.883l1.617.548-5.682 16.713c7.61 2.795 14.966 6.311 21.917 10.565v-11.515s11.42.047 17.267.07m-83.293-20.971c-15.518 0-30.838 2.464-45.434 7.214.874 2.583 5.274 15.57 6.053 18.009 12.714-4.112 25.919-6.164 39.381-6.164 13.506 0 26.702 2.083 39.377 6.164.828-2.439 5.262-15.413 6.118-17.937-14.628-4.822-29.967-7.286-45.495-7.286m-42.537 1.222c-14.63 4.404-28.387 11.117-40.986 19.889h17.232v11.464c7.076-4.324 14.529-7.882 22.244-10.724l-5.692-16.767 1.597-.554c2.029-.655 4.095-1.187 6.099-1.788-.169-.482-.307-1.014-.494-1.52m151.574 50.861c-3.305-.358.053 3.822-1.994 5.422-2.019 1.603-4.94-2.589-5.707.94-.933 4.004-4.824 7.37-4.824 7.436 1.151-4.223 1.12-6.612-2.005-11.113-2.756-3.842-2.925-9.452-2.202-11.916-.723-.716-1.481-1.345-2.276-2.066l.519-.548c-1.699 1.887-5.263-1.811-5.42 1.898-.243 4.124-3.516 8.102-3.516 8.102.447-4.32 0-6.683-3.871-10.531-3.362-3.321-4.52-8.86-4.213-11.361l-4.169-2.649c.024 3.951.041 12.73.041 12.73l-2.633-1.621c-7.414-4.845-15.464-8.681-23.743-11.752l-1.498 4.425-1.588-.519c-12.853-4.351-26.229-6.574-39.938-6.574-13.703 0-27.093 2.223-39.853 6.491l-1.588.554-1.541-4.377c-8.364 3.071-16.515 7.037-24.09 11.921l-2.561 1.634v-3.072-9.503l-3.821 2.392c.649 2.349-.915 7.641-4.365 11.281-3.735 4.029-4.804 7.593-3.735 10.749 0 0-3.817-4.33-3.564-8.147.272-3.216-3.71.024-5.413-1.852-1.743-2.03 2.597-5.103-1.028-5.818-4.16-.735-7.851-4.299-7.851-4.299 4.66.643 7.136.435 12.409-2.756 4.631-2.718 10.48-1.764 12.626-.375l4.388-2.769h-23.843l4.077-2.962c14.517-10.929 30.575-18.965 47.788-23.975l1.599-.428 1.592 4.758c12.523-3.384 25.576-5.185 38.774-5.185 13.085 0 26.063 1.776 38.551 5.14l1.541-4.827 1.603.474c17.244 4.967 33.372 12.995 47.858 23.874l4.075 3.005s-18.909-.022-23.569-.022l4.178 2.671c1.841-1.59 7.645-2.156 12.702.553 5.366 2.929 9.237 3.813 12.5 2.626 0 0-3.852 4.184-7.857 4.415-3.281.183.723 3.724-1.005 5.681l.519-.542c.721.596 1.45 1.243 2.177 1.945 2.042-1.257 7.948-.855 12.381 2.744 4.744 3.801 8.421 5.379 11.866 4.703 0 0-4.551 3.457-8.483 2.995m-77.204-44.387c-.76-.193-1.192.764-2.082 3.955-.087.542-.313 1.51-.237 1.51.101.241.266.278.468.326.819.253 1.374-.939 1.959-3.288.36-1.257.607-2.305-.108-2.503m-1.38 6.732c-.554-.193-.766-.358-1.015-.589-.26 3.146 1.015 4.4 2.148 5.068l-.14.42c-3.529-1.5-4.437-5.014-3.648-8.001 1.026-3.871 2.975-4.378 4.058-4.04 2.208.554 1.916 3.445 1.722 4.306-.77 2.789-2.299 3.069-3.125 2.836m-7.22-5.232c-.179-1.162-.249-1.356-1.541-1.609l-1.87-.301 1.516 2.878c1.092 2.064.867 3.323.774 3.782-.474 2.553-2.058 2.818-2.869 2.684-1.716-.337-2.04-2.849-2.104-3.918l.371.101c.19 1.5.956 1.716 1.209 1.741 1.276.253 1.795-1.335 1.896-1.842.329-1.946-.752-4.371-2.277-7.574l.128-.423 5.148.942-.093 3.634zm-12.836-.387c-.88-.108-1.203 1.137-1.446 3.53-.136 1.342-.235 2.343.525 2.419.773.084 1.08-.919 1.415-4.209.031-.385.031-1.192.031-1.475 0-.156-.303-.265-.525-.265m-.921 6.406c-2.249-.226-2.42-3.104-2.324-4.025.295-2.849 1.751-3.35 2.584-3.249.27.021.463.093.661.14.159.054.328.159.494.307-.272-3.25-1.697-4.231-2.865-4.744v-.36c3.673.873 5.173 4.278 4.835 7.302-.394 3.968-2.223 4.775-3.385 4.629m26.342-.787.698-1.856 2.828 1.071-.626 1.801zm-34.66-8.771-.303 9.533h-.241l-3.065-1.895v-.469c.387.228.83.469 1.007.469.468.048.509-.747.509-1.174l.212-6.454c0-1.011 0-1.669-1.434-1.669v-.401l4.711.101-.014.397c-1.252-.024-1.382.435-1.382 1.562m138.647 113.111c-2.703-1.982-1.934 3.356-4.553 3.685-2.507.361-2.861-4.744-5.329-2.035-2.818 2.991-7.945 3.949-7.945 3.949 3.129-2.991 4.313-5.117 3.852-10.584-.4-4.703 2.264-9.633 4.143-11.349l-.927-2.915.642-.2c-2.383.635-3.656-4.183-5.652-1.128-2.176 3.411-7.031 5.273-7.031 5.273 2.538-3.475 3.37-5.745 1.924-11.091-1.222-4.553.519-9.898 2.035-11.915-.426-.896-.908-1.788-1.421-2.684l.735-.365.62-.371c.486.861.968 1.692 1.341 2.612 2.357-.461 7.816 1.929 10.747 6.768 3.156 5.273 6.094 7.955 9.522 8.522 0 .01-5.426 1.706-9.021-.087-2.925-1.433-1.234 3.511-3.673 4.425l.707-.239.877 2.792c2.386-.035 7.22 3.24 9.357 8.561 2.196 5.752 4.532 8.906 7.803 10.032 0 0-5.636.734-8.753-1.656m-25.361-41.419c-1.656 3.776-6.046 6.407-6.046 6.448 1.91-3.982 2.33-6.336-.01-11.28-2.036-4.271-1.247-9.858-.079-12.128l-1.893-2.365 1.251-1.005 1.78 2.342c2.245-.867 7.865.579 11.758 4.839 4.005 4.59 7.309 6.768 10.819 6.72 0 0-5.092 2.602-8.878 1.45-3.175-.908-.639 3.824-2.868 5.039-2.305 1.195-4.425-3.471-5.834-.06m-123.222-69.214 3.076-.101.076 1.936-3.032.112zm-127.461 117.363c.082-1.015.253-2.029.414-3.045l1.514.198c-.105 1.001-.29 1.945-.399 2.919 2.144.989 5.308 5.597 5.92 10.574.601 5.449 2.697 8.562 5.834 9.748 0 0-5.762.147-8.576-2.513-2.377-2.249-2.289 2.868-4.919 2.948-2.602.095-2.225-5.232-5.128-2.903-3.162 2.685-8.268 3.228-8.268 3.228 3.432-3.156 4.799-5.185 5.792-11.212.89-5.299 5.402-9.194 7.816-9.942m8.37 46.591c1.576 6.586 3.592 13.125 6.135 19.369l.372.949-9.886 3.993-.35-.991-.77-1.988c-.758-1.963-1.475-3.877-2.114-5.881l-.329-.946 6.04-2.017.296 1.004c.387 1.361.913 2.733 1.43 4.047l.097.324-1.887.68-.107-.301c-.39-1.04-.74-2.083-1.115-3.179-.814.254-1.409.447-2.198.711.569 1.658 1.182 3.275 1.778 4.81 0 0 .204.56.42 1.09 1.267-.53 4.897-1.969 6.118-2.466-2.295-5.716-4.161-11.726-5.624-17.768-1.308.264-5.119 1.144-6.416 1.457.467 2.058 1.056 4.134 1.629 6.159.82-.206 1.409-.424 2.186-.667-.402-1.152-.991-3.543-.991-3.543l1.907-.546 1.566 5.494-6.056 1.765-.419-1.372c-.743-2.571-1.475-5.195-2.023-7.844l-.253-.946 10.345-2.422zm20.789 46.192c3.966 5.496 8.325 10.741 13.09 15.625l.667.715-7.616 7.398-.7-.678c-1.541-1.582-2.997-3.263-4.472-4.866l-1.889-2.083.791-.692 4.029-3.456 2.643 2.974 1.127 1.245-1.529 1.345-1.12-1.211s-.715-.855-1.343-1.558c-.614.534-1.078.956-1.72 1.547.245.276.533.554.533.554 1.187 1.335 2.435 2.707 3.716 4.028.983-.966 3.799-3.673 4.695-4.582-4.279-4.484-8.277-9.346-11.892-14.36-1.088.787-4.289 3.034-5.422 3.817.986 1.37 1.988 2.744 3.026 4.04 0 0 .412.544.838 1.052.614-.508 1.162-.896 1.788-1.427-.799-.944-2.274-2.938-2.274-2.938l1.648-1.246 3.416 4.542-4.944 3.931-2.071-2.68c-1.232-1.574-2.47-3.245-3.662-4.907l-.548-.849 8.629-6.118zm-13.048-22.996.369.921c2.775 6.151 6.145 12.181 9.812 17.825l.536.841-8.873 5.809-.525-.809c-1.496-2.236-2.925-4.619-4.425-7.227l-.482-.861 5.471-3.113 1.343 2.305 1.549 2.536-1.744 1.059-1.5-2.602s-.212-.313-.356-.589c-.693.404-1.319.758-2.025 1.156 1.108 1.909 2.169 3.71 3.294 5.354 1.188-.713 4.387-2.855 5.502-3.603-3.346-5.243-6.343-10.708-8.932-16.328-1.241.53-4.771 2.085-6.059 2.682.344.668.626 1.341.626 1.341.736 1.451 1.446 2.938 2.188 4.376.684-.361 1.323-.715 2.052-1.108-.595-1.105-1.195-2.178-1.675-3.317l1.794-.83c.668 1.349 1.374 2.764 2.095 4.136l.489.911-5.556 2.894-.472-.834c-.993-1.78-1.87-3.603-2.684-5.391l-1.541-3.191.921-.392zm27.955-152.325c.993 2.173.439 7.665-2.312 11.873-3.04 4.613-3.438 8.278-1.895 11.19 0-.022-4.493-3.574-4.909-7.422-.276-3.143-3.568.579-5.613-.884l.57.47-1.738 2.268c1.297 1.994 1.718 7.503-.27 12.146-2.196 5.049-1.926 8.712.14 11.314 0 0-5.064-2.79-6.172-6.454-.843-3.049-3.403 1.209-5.692.107l.678.389c-.501.808-.919 1.693-1.356 2.536 1.692 1.693 2.967 7.099 1.898 11.993-1.249 5.323-.447 8.908 2.082 11.085 0 0-5.502-1.823-7.166-5.267-1.329-2.808-3.167 1.763-5.593 1.108l.686.229-.847 2.781c1.932 1.368 4.202 6.417 3.931 11.462-.342 5.473 1.151 8.848 4.004 10.564 0 0-5.739-.833-7.962-3.939-1.889-2.579-2.857 2.453-5.346 2.039-2.63-.348-1.31-5.556-4.575-3.72-3.57 2.138-8.695 1.776-8.695 1.776 3.951-2.551 5.62-4.326 7.678-10.107 1.819-5.061 6.925-8.112 9.399-8.436l.975-2.902.645.228c-2.39-.908-.2-5.632-3.733-4.447-3.964 1.442-8.937.167-8.937.167 4.384-1.729 6.366-3.204 9.369-8.568 2.656-4.653 8.251-6.748 10.741-6.623.454-.921.927-1.854 1.446-2.709l.614.348c-2.208-1.281.771-5.669-2.908-5.038-4.137.751-8.809-1.381-8.809-1.381 4.571-1.003 6.833-2.086 10.679-6.831 3.457-4.157 9.291-5.22 11.732-4.666l1.895-2.428.542.422c-1.895-1.632 1.769-5.319-1.963-5.426-4.213 0-8.442-2.913-8.442-2.913 4.666-.132 7.047-.832 11.668-4.822 4.095-3.474 10.129-3.533 12.411-2.553.709-.713 1.523-1.38 2.264-2.076l.528.614.494.541c-.709.643-1.456 1.263-2.136 1.962m1.8 194.516c4.979 4.773 10.282 9.091 15.811 12.908l.83.559-6.063 8.726-.832-.591-1.817-1.263c-1.629-1.22-3.316-2.464-4.909-3.722l-.791-.649 3.912-4.955.766.661c.981.738 2.306 1.793 3.671 2.773l-1.135 1.615c-1.091-.735-2.111-1.522-2.966-2.185-.542.64-.902 1.114-1.432 1.775 1.319 1.043 2.705 2.046 4.069 3.025 0 0 .459.372.984.661.781-1.133 2.998-4.252 3.754-5.365-5.033-3.545-9.895-7.508-14.484-11.783-.909.954-3.624 3.758-4.559 4.759 1.65 1.522 3.232 2.937 4.777 4.254.548-.637.927-1.144 1.424-1.741-.215-.216-.497-.474-.497-.474l-2.313-1.992 1.386-1.462 2.276 1.959 2.015 1.728-.638.773-3.437 4.039-.795-.62c-2.023-1.703-4.105-3.562-6.347-5.677l-.708-.692 7.309-7.701zm74.494-226.976c.153.231.394.231.614.158.814-.072.899-1.367.635-3.769-.163-1.319-.241-2.359-1.014-2.252-.764.041-.83 1.115-.478 4.4.042.561.215 1.463.243 1.463m-2.212-1.086c-.453-3.988 1.215-5.102 2.305-5.257 2.262-.229 3.051 2.538 3.142 3.43.327 2.89-1.059 3.663-1.873 3.786-.595.048-.867-.047-1.191-.183.915 3.02 2.536 3.724 3.834 3.965l.031.435c-3.801-.121-5.947-3.119-6.248-6.176m-16.192 5.187c-.132-.366-.445-1.186-.554-1.427-.06-.12-.35-.12-.566-.072-.868.241-.728 1.499-.138 3.883.379 1.254.644 2.247 1.433 2.074.742-.23.649-1.254-.175-4.458m.355 4.86c-2.203.614-3.436-2.035-3.624-2.915-.801-2.744.408-3.733 1.281-3.998.182-.066.381-.077.561-.077.169 0 .416.011.614.101-1.467-2.915-3.082-3.341-4.396-3.341l-.083-.422c3.786-.499 6.304 2.163 7.122 5.1 1.042 3.896-.421 5.286-1.475 5.552m6.04-5.467.317-.085c.478 1.347 1.092 1.246 1.464 1.174l2.524-.494-4.089-8.411 1.139-.198 4.991 10.566-5.125.993zm-109.237 135.402-.066-3.022 1.529-.08.084 2.884c2.371.653 6.176 4.631 7.643 9.456 1.553 5.292 4.219 7.928 7.375 8.596 0 0-5.645 1.137-8.79-.993-2.689-1.811-1.875 3.203-4.419 3.733-2.482.591-3.001-4.806-5.48-1.933-2.754 3.204-7.649 4.559-7.649 4.559 3.018-3.698 3.785-5.91 3.811-12.051-.078-5.416 3.785-9.974 5.962-11.149m189.103 113.536c6.189-2.686 12.259-5.846 18.05-9.488l.806-.52 5.733 8.978-2.975 1.778c-1.669 1.032-3.432 2.093-5.214 3.003l-.824.443-3.04-5.475.826-.497c1.487-.795 2.931-1.57 4.06-2.258l1.048 1.704c-.968.554-2.07 1.211-3.201 1.788.383.748.694 1.333 1.078 2.042 1.421-.773 2.844-1.63 4.212-2.456 0 0 .614-.348 1.193-.713-.721-1.178-2.769-4.447-3.551-5.58-5.258 3.275-10.791 6.19-16.507 8.677.554 1.258 2.117 4.816 2.616 6.023 1.716-.7 3.59-1.551 5.786-2.694-.397-.728-.692-1.311-1.011-2.011-1.114.536-3.366 1.631-3.366 1.631l-.909-1.847 5.173-2.452 2.837 5.632-.907.468c-3.034 1.5-5.44 2.602-7.706 3.558l-.927.412-.396-.921-3.804-8.811zm41.777-28.671c4.45-4.425 8.407-9.332 12.078-14.365-.265-.193-.525-.496-.809-.713-.052-.084-.171.089-.239.134-.198-.134-.352-.288-.614-.111v-.154c-.091-.087-.144.22-.307.154-.192-.177-.527-.202-.861-.241-.505-.035-1.125-.035-1.667-.154-.228-.023-.383.193-.63.119-.663 0-1.267-.084-1.947 0-.072-.035-.313-.084-.342-.119-.68-.023-1.475-.077-1.905.395-.662.507-1.304.766-1.764 1.506-.088.103-.154-.031-.232-.091.09-.469.144-1.028.185-1.522-.282-.047-.655.173-.946.243-.088-.159-.088-.496.091-.554.109-.124.2-.183.373-.332.169-.105.375-.057.482-.08.225-.148.542-.266.729-.486.585-.579 1.432-.933 1.694-1.776.119-.146-.375-.387-.612-.387-.703.047-1.304.387-2.093.471-.573.136-.993.542-1.275 1.078-.561-.896-1.562-.387-2.415-.229.54.626.981 1.21 1.304 1.799.109.183.109.531.206.603.26.482.344.968.519 1.366.588 1.127.709 2.373.87 3.617.039.14-.066.406-.282.497-.332-.472-.433-1.026-.656-1.669-.078-.049-.319-.231-.385-.278-.434-1.162-.879-2.396-1.829-3.269.072-.048.101-.14 0-.223-.08-.09-.218-.218-.359-.218-.261-.571-.564-.921-1.075-1.335-.07-.022-.323-.163-.259-.416-.064-.031-.097.033-.14.115-.083-.082-.167-.115-.229-.193-.336 0-.727.111-.643.447.21 1.162 1.201 2.527.643 3.702-.709-.658-1.475-1.366-2.054-2.25-.371-.412-.737-.797-.888-1.279-.187-.573-.344-1.139-.387-1.661.043-.08.165-.228.231-.288.819.288 1.575.474 2.478.534.548-.06 1.178-.12 1.743-.326.77-.276 1.66-.076 2.28-.595.325-.254.729.062.941-.361.048-.035-.068-.173-.146-.181-1.516-.15-2.837-.138-4.27-.185.2-.52.7-.602 1.244-.748.047-.085.189-.229.225-.289 1.013-.059 2.006.204 2.966-.278.101-.07 0-.094-.076-.173.212-.301.284-.675.218-1.083 0-.114.338.094.354-.091.225.185.225.414.394.632.288.289.307.934.721.909.661-.054 1.399.025 1.975.084.301.06.608.068 1.047.169.181.035.253-.329.428-.399.373.092.579-.221.785-.301.703-.389 1.475-.69 2.178-.909.465-.288.77-.541 1.215-.613.548-.149.968-.402 1.387-.68.107-.095.401-.254.461-.423.074-.084-.06-.288-.06-.288-.241-.049-.401-.28-.686-.049 0 0-.134-.161-.235-.209-.101-.022-.125.038-.154.097-.165 0-.165-.119-.105-.189-.474-.041-.915-.041-1.24-.041-2.571-.241-5.021-.697-7.538-.241-.179-.025-.42.412-.702.525.408.395 1.149.14 1.604.107.381-.049.927 0 1.243.091.319.15.714.103.98.296.091.07.247.07.332-.066.053.035.134.066.228.136.101.12-.175.254-.028.351.195.181.335.263.335.583.054.059.192.206.192.206-.066.234.087.482.062.696-.116.231-.394.608-.561.484-.56-.152-.933-.484-1.45-.76-.873-.348-1.693-.451-2.655-.752-.029-.06-.336-.163-.507.072-.142-.132-.336-.266-.439 0-.3-.494-.824.194-1.283 0-.06-.012-.138-.072-.101-.152.548-.522 1.275-.738 1.817-1.152.218-.313-.441-.447-.637-.808-.096.118-.243-.171-.344-.024-.276.195-.614.408-1.011.579-.157 0-.192.342-.319.377-.344-.101-.674.29-.827.36-.56.266-1.186.507-1.715.874-.079.175-.373.228-.734.228-.072.097-.193.2-.212.291-.253 0-.496.094-.754.169-.336.179-.655.372-.991.445-.084.101-.198.216-.241.253-.373-.107-.373.295-.721.295-.146 0-.344.212-.397.372-.641.204-1.138.517-1.772.736-.103.035-.103-.128-.06-.194.048-.06.157-.218.2-.301.023-.072 0-.119-.078-.173.498-.611 1.162-1.061 1.763-1.602 1.782-1.393 3.642-2.421 5.665-3.504.083-.054.301-.206.453-.355.077.048.126.101.126.101.295-.101.517-.284.89-.379-.06-.134.072-.348-.138-.422-2.132.206-3.945.675-6.174.583-.13-.126-.371-.295-.449 0-.253-.196-.519-.161-.573-.196-.57-.278-1.462-.838-1.728.013v-.147c-1.846 1.174-3.646 2.176-5.539 3.166-1.125.555-2.217 1.049-3.54 1.309-.047.047-.162.214-.253.3-.154-.276-.373.072-.437 0-.284-.253-.719-.375-.671-.663 0-1.36 1.374-1.936 2.657-2.348.408-.143.828-.254 1.119-.499.63-.463 1.384-.441 1.879-1.096.119-.134.226.206.337.035.2-.251.709-.251.849-.711.126-.119.227.169.367.044.121-.138.148-.357.342-.451.657-.307 1.308-.633 2-.899.367-.16-.175-.576-.278-.747-1.722-1.776-3.438-3.447-5.496-4.726-1.389.037-2.25 1.339-3.041 2.39-.064.086 0 .146.019.206-.754.688-.754 1.806-1.451 2.649-.133-.085-.164-.348-.133-.591.288-1.37.663-2.773 1.168-4.112.109-.276.416-.474.397-.703 0-.301.219-.471.332-.614.348-.434.523-.976.927-1.207.393-.173.807-.113 1.096.021.98.591 1.811 1.465 2.661 2.148.295.219.596.367.874.68.076.048-.056.206.041.229.276.243.69.424.824.717.243.169.62.422.832.688-.018.07-.115.154-.018.193.253.256.62.361.799.614.447.668.748 1.292 1.38 1.659.357.14.771-.336 1.265-.437.019-.117.138-.194.227-.301.513.083.579-.459.99-.459.225-.126.248-.338.425-.499.043-.068.2.037.231 0 .222-.241.655-.7.307-.855-1.168-.434-2.409.456-3.741.493.078-.048.078-.048.117-.167.06-.048-.039-.134-.062-.171.639-.655 1.525-.738 2.227-1.384.132.103.194.055.35.012.571-.464 1.35-.284 2.104-.573.142 0 .321-.072.321-.245.194.21.358-.115.548-.08.573.313.284.989.338 1.532 0 .437-.41.668-.692.969-.89 1.545-2.555 2.511-3.671 3.918.288.228.721.253 1.052.121.802-.459 1.675-.63 2.571-.896.029-.047.126-.231.212-.301.118-.123.231.19.313 0 .095-.051.118-.123.184-.171.766-.148 1.345-.576 2.2-.506.21.047.402-.367.608-.402.119.06.222.066.222.194.272 0 .445-.105.645-.159.175.344.404 0 .711.054.059.072.319.152.432-.089.402.194.785.148 1.234.035.109.031.128.113.2.159.548-.105 1.184-.033 1.384.486.21.469 0 1.127-.301 1.703-.092.159-.203.713.279.542.607-.204 1.297-.169 1.948-.117.099-.033.342-.171.536-.033.128.08.2-.066.266-.101 1.168.194 2.323 0 3.45.216.336-.035.542-.082.75-.169 0 .147.359.035.266.264.519-.095.989.066 1.469.066.381-.066.76-.126 1.174-.243.247-.052.525.117.748.243.478.092.548.785.519 1.12-.066.342-.159.839-.482 1.068-.398.265-.538.721-1.028.807-.324.095-.484.408-.725.74-.128.127-.206-.219-.272-.05-.223.212-.431.385-.69.604-1.234.69-2.67 1.343-4.096 1.992.019.125-.041.138-.088.266.286.968-.2 1.775-.795 2.521.022.115.059.369.265.416 1.269 0 2.33-.181 3.527-.264.113-.119.239-.152.348-.243 1.529.124 2.95-.601 3.995.68.094.033 0 .194.041.266.148.122.148.288.22.435.019-.023.099-.077.115-.147l.621-.774 8.654 6.118-.614.83c-1.125 1.661-2.347 3.245-3.591 4.839l-2.089 2.662-.813-.645-4.106-3.321 3.467-4.47 1.613 1.203s-1.493 1.959-2.297 2.96c.674.503 1.121.909 1.823 1.405.402-.496.82-1.075.82-1.075 1.022-1.242 2.035-2.53 2.95-3.867-1.104-.822-4.27-3.11-5.372-3.883-3.636 5.01-7.66 9.839-11.953 14.299.88.898 3.692 3.64 4.685 4.631 1.195-1.185 2.369-2.499 3.504-3.805 0 0 .393-.427.801-.896-.601-.532-1.108-.969-1.728-1.535-.62.702-1.366 1.535-1.366 1.535l-1.143 1.256-1.475-1.328 1.143-1.321 2.686-2.896.715.613 4.065 3.523-2.215 2.423c-1.355 1.516-2.771 3.088-4.27 4.598l-.717.663-.734-.663-6.843-6.755zm-19.5 16.399c5.647-3.839 10.976-8.157 15.862-12.813l.761-.678 7.28 7.693-.721.679c-2.007 1.929-4.104 3.783-6.3 5.626l-.741.655-4.1-4.847 2.046-1.706 2.26-1.959 1.39 1.475-2.359 1.999s-.212.253-.494.397c.494.643.89 1.125 1.463 1.751 1.637-1.362 3.153-2.744 4.713-4.136-.939-1.012-3.605-3.84-4.551-4.817-4.521 4.227-9.43 8.193-14.529 11.724.74 1.1 2.95 4.328 3.764 5.477.554-.461 1.114-.832 1.114-.832 1.341-.968 2.728-1.959 4.015-2.956-.498-.671-.879-1.191-1.405-1.835-1.003.797-2.012 1.6-3.038 2.282l-1.162-1.662c1.275-.849 2.536-1.793 3.77-2.786l.77-.646 3.877 4.966-.76.625c-1.588 1.322-3.298 2.478-4.942 3.652l-2.746 2.004-.589-.817-5.461-7.954zm-27.095 14.192.989-.334 3.829 9.864-.92.368c-1.916.783-3.898 1.42-5.806 2.073l-3.083 1.05-.349-.956-1.615-5.038 5.42-1.815.62 1.922s-2.365.772-3.485 1.199c.264.747.441 1.368.723 2.15.527-.193 1.156-.412 1.156-.412 1.594-.541 3.182-1.108 4.756-1.703-.472-1.234-1.903-4.874-2.39-6.141-5.811 2.21-11.82 3.986-17.905 5.341.264 1.331 1.088 5.093 1.394 6.454 2.12-.482 4.217-1.001 6.228-1.53-.282-.799-.441-1.42-.657-2.202-.88.241-2.001.541-2.001.541l-1.588.392-.535-1.959 1.637-.449 3.83-.966.348.953 1.434 5.117-.962.266c-2.602.711-5.42 1.415-8.329 2.04l-.933.183-.229-.991-2.035-9.391.989-.196c6.662-1.393 13.19-3.41 19.469-5.83m62.643-50.372c3.72-5.681 7.049-11.696 9.839-17.815l.455-.92 9.676 4.39-1.518 3.203c-.884 1.716-1.723 3.539-2.654 5.243l-.494.873-5.593-2.973.5-.885c.771-1.327 1.475-2.777 2.143-4.133l1.798.874c-.467 1.096-1.075 2.198-1.716 3.306.754.414 1.343.715 2.044 1.092.799-1.38 1.448-2.843 2.12-4.283 0 0 .354-.688.702-1.314-1.329-.631-4.866-2.178-6.052-2.757-2.565 5.647-5.641 11.098-9.033 16.353 1.075.739 4.385 2.82 5.512 3.617 1.143-1.776 2.289-3.57 3.366-5.453-.748-.375-1.271-.71-2.01-1.137-.134.324-.348.577-.348.577l-1.535 2.662-1.718-1.096 1.565-2.577 1.288-2.283.923.529 4.579 2.615-.496.855c-1.393 2.542-2.961 4.942-4.471 7.267l-.535.818-.851-.542-8.053-5.308zm24.203-44.51c-2.571-.53-1.156-5.437-4.412-3.793-3.651 1.883-8.778 1.053-8.778 1.053 3.912-1.788 5.869-3.304 7.191-8.621 1.298-4.571 5.41-8.364 7.816-9.332l.111-3.006 1.521.023-.054 2.915c2.157.807 5.696 5.568 5.797 11.272.241 6.104 1.211 9.915 4.005 12.115 0 0-5.593-1.267-7.769-4.559-1.876-2.814-2.886 2.524-5.428 1.933m-111.327 101.703.972-.204 1.852 10.481-3.106.472c-2.05.36-4.131.649-6.238.867l-.981.082-.729-6.26 1.036-.121c1.453-.132 3.035-.314 4.569-.602l.293 2.029c-1.195.181-2.441.354-3.694.507.085.824.151 1.45.285 2.212 1.695-.129 3.51-.42 5.174-.673 0 0 .507-.089 1.055-.194-.241-1.345-.902-5.127-1.149-6.508-5.869 1.033-12.126 1.622-18.563 1.772.033 1.337.049 5.243.074 6.604 1.918-.034 3.918-.115 6.382-.313-.093-.817-.093-1.45-.194-2.257-1.234.059-3.716.228-3.716.228l-.101-2.029 5.646-.329.538 6.289-.993.06c-3.444.265-6.015.387-8.537.387h-1.007v-1.014l-.175-9.603.989-.011c7.115-.107 13.895-.752 20.318-1.872m113.375-149.318c.142.966.366 1.934.408 2.914 2.358.412 6.581 4.458 7.657 10.105 1.254 5.953 2.964 9.538 6.034 11.233 0 0-5.744-.313-8.405-3.228-2.295-2.371-2.456 3.02-5.087 2.892-2.56-.055-1.957-5.152-4.985-2.987-3.296 2.511-8.411 2.584-8.411 2.584 3.667-2.444 5.142-4.318 5.641-9.779.422-4.714 3.891-9.116 6.039-10.48-.09-1.001-.241-2-.426-3.024zm-14.394 69.61c2.596-6.288 4.631-12.808 6.193-19.402l.22-.993 10.317 2.427-.188.989c-.572 2.612-1.287 5.226-2.06 7.801l-.36 1.277-6.116-1.788 1.623-5.436 1.875.542s-.62 2.323-.927 3.557c.739.206 1.369.396 2.154.614.554-1.982 1.119-4.058 1.632-6.065-1.343-.274-5.132-1.184-6.429-1.491-1.5 6.021-3.397 11.981-5.692 17.774 1.258.542 4.806 1.992 6.112 2.486.2-.482.383-.908.383-.908.647-1.656 1.279-3.366 1.881-5.035-.843-.307-1.387-.533-2.198-.774-.414 1.131-.793 2.282-1.174 3.38l-.126.146-1.848-.735.041-.113c.523-1.337 1.071-2.849 1.541-4.24l.266-.98 6.009 2.035-.284.927c-.614 2.07-1.488 4.112-2.227 6.093l-1.096 2.8-.968-.381-8.908-3.558zm-97.962 54.613c-.177.059-.084-.217-.247-.145-.119 0-.206.031-.284.031-.14-.15-.113-.333-.035-.447.332-.197.319-.554.632-.748.307-.177.614-.407.915-.407.663.107 1.475.407 2.182.23.148-.123 0-.307-.072-.484-1.092-1.438-2.411-2.589-3.338-4.147-.119-.171-.284.095-.319-.072-.029-.099-.078-.156-.078-.253-.435-.157-.765-.447-1.036-.777-.843-.591-1.824-.774-2.691-1.258.276-.14.573-.14.843-.14.667 0 1.353.241 2.006.554 1.288.543 2.503 1.405 3.821 2.222.066.12.066.303.11.367.047.177.187 0 .269 0 0 0 .013.08.013.177.146.06.348 0 .348 0 .187.241.406.462.591.771.056.053.301.307.451.451.746.542.88 1.39 1.585 2.07.782-1.747 1.837-3.292 2.605-5.214.579-1.487.927-2.884 1.609-4.371.091-.307.373-.692.818-.793.711-.153 1.403-.346 2.019-.266.307.113.639-.08.993.066.266.167.608-.181.927-.066.216.012.482.012.608.233.181.23.269.56.181.826-.276.404-.789.152-1.209.404-1.527.83-2.73 1.973-3.811 3.436-.04.033-.382.23-.394.266-1.366 1.814-2.443 3.65-3.871 5.341-.152.245-.401.668-.059.886.366.253.968.288 1.576.36.76.266 1.349.483 2.006.752 1.222.495 2.437.736 3.551 1.584.101.025.429.025.429.155.319.266.54.76.332 1.127-.206.554-.419 1.085-.761 1.555-.265.579.06 1.407-.56 1.801-.138.016-.179-.2-.231-.338.093-.641.318-1.35.159-1.933-.066-.496-.247-.879-.68-1.11-.601-.342-1.178-.342-1.829-.529-.482-.138-1.121-.196-1.578-.256-.078.035-.457-.183-.457.118.119.459.473.898.811 1.281.423.554.464 1.393 1.174 1.815-.053.072-.144.119-.119.144 1.121 1.788 1.961 3.617 2.612 5.49.225.733.2 1.559.066 2.367-.159.439-.507.826-.987.807-.294 0-.494-.313-.57-.613-1.28-2.361-2.11-4.701-3.103-7.083-.698-1.648-1.588-3.31-2.655-4.911-.62-.735-1.881-.735-2.758-.929-.332-.047-.734-.154-1.016-.154-.42-.06-1.057-.254-1.494-.243" transform="translate(70.5885 200.8214)"/><path d="m0 0-11.814-.025v9.231h-13.382v-9.231h-8.858v-6.417h-11.584v3.951h5.323v9.981h9.421v10.069h24.481v-10.069h13.256c1.718-6.936 2.647-14.173 2.647-21.626 0-14.358-3.432-27.944-9.472-39.972v54.108zm-3.889-61.044h-45.759l-4.329 7.259v40.209h.454.142c1.386 0 2.808.186 3.926.59v-44.472h47.679c-.675-1.209-1.374-2.396-2.113-3.586m-75.663-42.202c-30.455.023-57.398 15.413-73.449 38.838h44.982l.01.035 5.15 8.919h46.641l5.138-8.919.01-.035h44.995c-16.076-23.425-42.995-38.815-73.477-38.838m-77.773 45.788h47.697v44.472c1.115-.404 2.54-.59 3.92-.59h.155.441v-40.209l-4.335-7.259h-45.752c-.74 1.19-1.44 2.377-2.126 3.586m32.237 20.287h-10.661v17.154h10.661zm101.701 0h-10.661v17.154h10.661zm-135.696 37.171v-54.108c-6.075 12.028-9.509 25.614-9.509 39.972 0 7.453.919 14.69 2.676 21.626h13.24v10.069h24.487v-10.069h9.411v-9.981h5.327v-3.951h-11.578v6.417h-8.858v9.231h-13.388v-9.231zm102.311-8.765-4.425 25.702h5.521l6.221-23.537v-2.384c-1.155.423-2.686.596-4.192.573-1.096-.012-2.202-.113-3.125-.354m-13.075 25.702h5.546l4.453-25.945c-.166.065-.407.098-.601.146-.194.072-.459.138-.68.185-.315.056-.616.116-.97.163-.505.066-1.075.103-1.642.126h-.052c-1.382 0-2.778-.161-3.887-.509zm-1.213-62.451v32.311c.797.206 1.431.487 1.959.849 1.143-.826 3.172-1.222 5.129-1.222h.044.094c1.957 0 4.023.396 5.161 1.222.513-.375 1.209-.655 2.012-.849v-38.782zm-7.175 36.549v25.902h5.551l2.155-25.847c-.974.326-2.214.474-3.461.499-.14 0-.276.023-.41.023-.173 0-.337-.023-.512-.035-1.21-.048-2.396-.219-3.323-.542m-7.177-38.413.068.035v33.767h.508.153c1.959 0 3.992.396 5.131 1.222 1.142-.826 3.195-1.222 5.152-1.222h.147.515v-33.767l.066-.035 11.748-5.381h-35.253zm-3.148 38.468 2.167 25.847h5.568v-25.902c-.949.323-2.142.494-3.364.542-.162.012-.315.035-.517.035-.111 0-.253-.023-.393-.023-1.234-.025-2.493-.173-3.461-.499m-13.86-4.293c.783.194 1.504.474 2.011.849 1.133-.826 3.178-1.222 5.137-1.222h.089.06c1.963 0 3.986.396 5.16 1.222.48-.362 1.15-.643 1.924-.849v-32.311l-14.381-6.471zm7.633 30.14h5.545l-2.177-25.834c-1.115.348-2.489.509-3.869.509h-.06c-.56-.023-1.116-.06-1.658-.126-.332-.047-.628-.107-.942-.163-.22-.047-.473-.113-.692-.185-.2-.048-.441-.081-.614-.146zm-7.538-25.702c-.927.241-2.013.342-3.094.354-1.539.023-3.059-.15-4.209-.573v2.384l6.197 23.537h5.539zm-51.694 43.252c4.221.519 11.147 1.574 18.905 3.522 8.777 2.223 18.459 4.734 27.903 9.066l10.221-4.973 17.418 11.013 17.407-11.013 10.224 4.973c9.445-4.332 19.117-6.843 27.901-9.066 7.782-1.961 14.749-3.003 18.974-3.535 4.337-6.614 7.878-13.804 10.333-21.48h-9.739v4.866l.078.886c.142 1.014.842 2.052 1.409 2.752 1.184 1.428 1.395 2.466 1.463 3.323l.012.146h-.012c0 .579-.482 1.063-1.08 1.063h-.01c-.591 0-1.073-.484-1.073-1.075 0-.4.222-.748.56-.942-.554-.933-1.553-.933-2.515-.933h-25.975c-1.007 0-2.004 0-2.552.933.342.194.548.542.548.942 0 .591-.478 1.075-1.055 1.075h-.019c-.595 0-1.079-.484-1.079-1.075v-.134c.064-.857.28-1.895 1.473-3.323.552-.7 1.263-1.738 1.401-2.752l.074-.816v-4.936h-8.209c-1.016 0-2.023 0-2.557.956.326.194.534.542.534.933 0 .59-.468 1.074-1.063 1.074h-.007c-.585 0-1.079-.484-1.079-1.074l.012-.137c.066-.843.276-1.885 1.444-3.325.579-.686 1.265-1.716 1.416-2.744l.078-.88v-4.787h-5.358l-3.673 14.043s1.862.956 2.618 1.67l.365 1.718c1.876 1.416 4.206 3.787 4.206 3.787l-.956 1.001-.053-.033-.021.033s-2-1.549-3.889-2.417c-1.817-.861-3.918-1.74-5.698-1.763h-49.661c-1.792.023-3.885.902-5.685 1.763-1.877.868-3.877 2.417-3.877 2.417l-.035-.033-.052.033-.993-1.001s2.355-2.371 4.215-3.787l.4-1.718c.737-.714 2.606-1.67 2.606-1.67l-3.721-14.043h-5.329v4.787l.103.88c.117 1.028.824 2.058 1.397 2.744 1.186 1.44 1.409 2.482 1.45 3.325v.137c0 .59-.47 1.074-1.067 1.074-.602 0-1.065-.484-1.065-1.074 0-.391.2-.739.541-.933-.541-.956-1.553-.956-2.544-.956h-8.233v4.936l.086.816c.132 1.014.82 2.052 1.397 2.752 1.178 1.428 1.394 2.466 1.464 3.323v.134c0 .591-.478 1.075-1.079 1.075-.589 0-1.08-.484-1.08-1.075 0-.4.2-.748.555-.942-.542-.933-1.564-.933-2.553-.933h-25.974c-.956 0-1.96 0-2.51.933.332.194.55.542.55.942 0 .591-.484 1.075-1.056 1.075h-.023c-.595 0-1.067-.484-1.073-1.063h-.017l.017-.146c.057-.857.284-1.895 1.475-3.323.572-.7 1.26-1.738 1.38-2.752l.095-.886v-4.866h-9.752c2.472 7.676 6.005 14.878 10.343 21.493m2.144 3.228.734 1.065c16.245 21.929 42.277 36.18 71.589 36.215 29.327-.035 55.378-14.286 71.588-36.215l.801-1.115.662-.978c-4.751.642-12.589 2.033-21.396 5.067-16.012 5.499-24.382 9.987-24.382 9.987l-9.645-5.71-17.648 14.179-17.671-14.179-9.633 5.71s-8.376-4.488-24.38-9.987c-8.784-3.022-16.558-4.425-21.307-5.057zm72.395 40.642h-.129c-51.017 0-92.503-41.487-92.503-92.493 0-50.998 41.486-92.499 92.503-92.499l.057.013.048-.013c51.043 0 92.54 41.501 92.54 92.499 0 51.006-41.497 92.493-92.516 92.493m-.092-18.133v-.014zm23.933-137.326h-47.815l1.798 5.393h44.245zm2.637-8.022h-53.079l1.76 5.389h49.549zm-46.023 21.437h38.971l1.782-5.379h-42.529zm-1.976 2.643-8.783-26.735h60.496l-8.794 26.735z" transform="translate(229.5879 158.1592)"/></g></svg>